<?xml version="1.0" encoding="UTF-8" standalone="no"?>
<svg
   xmlns:dc="http://purl.org/dc/elements/1.1/"
   xmlns:cc="http://creativecommons.org/ns#"
   xmlns:rdf="http://www.w3.org/1999/02/22-rdf-syntax-ns#"
   xmlns:svg="http://www.w3.org/2000/svg"
   xmlns="http://www.w3.org/2000/svg"
   version="1.1"
   width="625"
   height="625"
   id="svg3004"
   xml:space="preserve"><metadata
     id="metadata3010"><rdf:RDF><cc:Work
         rdf:about=""><dc:format>image/svg+xml</dc:format><dc:type
           rdf:resource="http://purl.org/dc/dcmitype/StillImage" /><dc:title></dc:title></cc:Work></rdf:RDF></metadata><defs
     id="defs3008"><clipPath
       id="clipPath3018"><path
         d="M 0,500 500,500 500,0 0,0 0,500 z"
         id="path3020" /></clipPath></defs><g
     transform="matrix(1.25,0,0,-1.25,0,625)"
     id="g3012"><g
       id="g3014"><g
         clip-path="url(#clipPath3018)"
         id="g3016"><g
           transform="translate(284.9279,335.1539)"
           id="g3022"><path
             d="m 0,0 c 8.448,-12.695 16.417,-24.672 24.143,-36.281 l 99.409,0 0,36.281 L 0,0 z"
             id="path3024"
             style="fill:#386dbe;fill-opacity:1;fill-rule:nonzero;stroke:none" /></g><g
           transform="translate(408.5,248.7962)"
           id="g3026"><path
             d="m 0,0 -0.046,36.272 -86.191,0 C -77.772,23.556 -69.801,11.581 -62.092,0 L 0,0 z"
             id="path3028"
             style="fill:#386dbe;fill-opacity:1;fill-rule:nonzero;stroke:none" /></g><g
           transform="translate(173.8255,188.1987)"
           id="g3030"><path
             d="m 0,0 c 10.696,-2.941 27.648,-6.615 49.952,-8.332 14.741,22.133 29.614,44.466 44.887,67.397 14.21,-21.333 28.022,-42.068 41.552,-62.38 9.45,2.116 23.783,6.783 23.783,6.783 l -0.081,25.297 c 0,0 2.516,1.18 8.637,2.738 C 128.288,92.264 88.134,152.591 48.194,212.598 l -55.507,0 C 17.679,175.039 42.288,138.057 67.069,100.815 44.759,67.281 22.544,33.887 0,0"
             id="path3032"
             style="fill:#538dce;fill-opacity:1;fill-rule:nonzero;stroke:none" /></g><g
           transform="translate(127.2364,230.7167)"
           id="g3034"><path
             d="m 0,0 36.764,-13.05 0.333,-14.333 c 0,0 40.534,60.405 57.357,85.685 -25.056,37.637 -49.852,74.883 -74.515,111.931 l -55.659,0 C -10.686,132.61 38.772,58.282 38.772,58.282 L 0,0 z"
             id="path3036"
             style="fill:#7cabdb;fill-opacity:1;fill-rule:nonzero;stroke:none" /></g><g
           transform="translate(454.6667,267.1667)"
           id="g3038"><path
             d="m 0,0 -33.667,-13.333 1.615,-18.736 c 0,0 -28.965,-13.793 -46.896,-20.69 -17.931,-6.896 -28.385,-11.574 -28.385,-11.574 l 0.109,-22.908 c 0,0 -36.552,-15.862 -97.931,-15.862 -61.38,0 -96.552,15.172 -96.552,15.172 l 0,25.931 -76.552,29.241 0.092,16.426 L -408.833,2 c 0,0 -6.667,-37 1.609,-67.172 2.426,-8.844 13.213,-49.674 43.328,-87.952 0.727,0.01 1.453,0.021 2.189,0.021 33.104,0 18.46,-19.897 50.874,-19.897 32.413,0 24.987,19.897 53.264,19.897 28.276,0 26.206,-20 53.103,-20 26.897,0 24.69,20.103 52.966,20.103 28.276,0 29.833,-19.667 53.333,-19.667 25.5,0 28.834,19.188 54.229,19.188 26.139,32.659 38.495,67.558 42.231,85.548 C 7,-26 0,0 0,0"
             id="path3040"
             style="fill:#386dbe;fill-opacity:1;fill-rule:nonzero;stroke:none" /></g></g></g></g></svg>
